<?xml version="1.0" encoding="UTF-8"?>
<!-- Generator: visioncortex VTracer 0.6.4 -->
<svg version="1.1" xmlns="http://www.w3.org/2000/svg" width="564" height="652">
<path d="M0,0 L5,1 L5,13 L0,15 L-1,27 L-5,29 L-7,41 L-10,45 L-12,52 L-16,55 L-17,69 L-22,74 L-23,86 L-28,91 L-29,100 L-30,102 L-35,103 L-35,112 L-39,117 L-41,126 L-44,128 L-45,137 L-47,140 L-50,140 L-51,151 L-54,155 L-56,162 L-60,165 L-62,176 L-66,177 L-67,189 L-72,194 L-74,206 L-78,210 L-80,223 L-84,226 L-85,234 L-90,238 L-91,246 L-95,248 L-96,259 L-100,264 L-100,268 L-98,269 L10,270 L14,273 L15,282 L11,285 L8,292 L3,293 L2,300 L-3,305 L-6,306 L-9,314 L-17,320 L-20,327 L-27,333 L-30,340 L-37,345 L-41,353 L-45,354 L-46,360 L-51,366 L-55,367 L-57,374 L-61,377 L-63,384 L-67,387 L-69,391 L-73,392 L-75,398 L-79,399 L-81,404 L-86,412 L-92,416 L-94,423 L-97,424 L-98,428 L-102,430 L-104,435 L-108,439 L-113,445 L-116,451 L-120,453 L-122,458 L-124,459 L-127,465 L-130,467 L-132,473 L-139,479 L-143,485 L-145,485 L-146,490 L-151,492 L-153,499 L-158,503 L-161,506 L-163,506 L-164,513 L-169,516 L-172,525 L-176,526 L-180,532 L-183,538 L-188,541 L-193,551 L-198,554 L-200,560 L-206,563 L-208,572 L-213,576 L-217,576 L-218,584 L-223,586 L-224,589 L-228,591 L-229,598 L-231,600 L-235,600 L-236,607 L-243,613 L-247,615 L-249,624 L-253,626 L-254,631 L-258,633 L-260,638 L-263,639 L-265,644 L-270,644 L-271,639 L-268,638 L-268,627 L-266,623 L-263,622 L-260,609 L-257,604 L-256,594 L-254,591 L-250,589 L-249,578 L-246,574 L-244,574 L-242,564 L-238,561 L-236,552 L-232,548 L-231,537 L-226,532 L-224,517 L-219,514 L-217,503 L-213,499 L-211,486 L-207,482 L-204,475 L-202,470 L-200,464 L-199,462 L-197,462 L-196,452 L-193,449 L-191,449 L-189,439 L-186,436 L-184,426 L-181,425 L-179,414 L-175,409 L-173,402 L-170,399 L-168,387 L-165,384 L-165,376 L-251,375 L-269,375 L-278,373 L-279,371 L-279,362 L-270,353 L-267,347 L-262,342 L-257,336 L-254,327 L-250,324 L-248,320 L-243,315 L-238,311 L-232,302 L-227,297 L-224,291 L-218,283 L-215,276 L-207,270 L-201,258 L-196,255 L-192,247 L-188,244 L-186,240 L-181,235 L-175,226 L-172,223 L-168,217 L-163,212 L-161,208 L-159,208 L-157,200 L-153,198 L-151,193 L-146,189 L-144,184 L-139,178 L-133,174 L-128,168 L-123,156 L-118,151 L-113,146 L-105,135 L-99,131 L-96,123 L-91,122 L-89,117 L-86,109 L-83,107 L-80,102 L-76,100 L-73,94 L-69,93 L-67,88 L-65,86 L-63,81 L-59,80 L-57,72 L-53,70 L-48,65 L-46,65 L-44,57 L-40,54 L-38,54 L-37,44 L-31,40 L-26,37 L-23,30 L-20,27 L-18,20 L-14,18 L-12,12 L-9,11 L-7,6 Z " fill="#F5B45C" transform="translate(415,2)"/>
<path d="M0,0 L5,0 L6,2 L13,4 L13,8 L17,8 L21,13 L24,16 L26,17 L28,22 L31,24 L31,26 L36,27 L37,31 L40,31 L41,34 L49,41 L54,46 L56,47 L57,50 L61,53 L61,55 L64,56 L64,59 L68,61 L69,65 L72,66 L74,70 L74,74 L81,75 L82,79 L99,79 L101,83 L111,84 L112,87 L117,89 L117,93 L120,94 L125,99 L126,106 L129,108 L130,118 L130,131 L129,133 L125,135 L125,145 L121,147 L119,150 L115,150 L116,160 L118,161 L118,173 L121,173 L121,195 L128,195 L131,199 L136,201 L136,204 L140,206 L140,209 L145,210 L144,215 L148,216 L149,217 L149,248 L145,249 L144,257 L137,263 L136,269 L131,270 L129,273 L119,273 L119,291 L117,293 L116,303 L112,305 L111,321 L110,323 L117,329 L117,333 L120,335 L120,366 L115,367 L115,372 L112,375 L110,380 L108,382 L106,384 L99,386 L97,390 L73,390 L67,395 L65,399 L62,399 L60,403 L58,403 L57,407 L52,407 L51,412 L49,413 L48,416 L44,417 L42,421 L39,421 L38,426 L36,427 L35,430 L33,430 L33,459 L28,460 L27,464 L24,465 L22,470 L18,470 L17,474 L8,475 L7,478 L-22,478 L-23,474 L-29,474 L-31,473 L-32,470 L-35,468 L-35,466 L-42,466 L-43,470 L-57,470 L-58,474 L-63,475 L-92,476 L-94,482 L-95,483 L-96,491 L-100,493 L-100,496 L-102,496 L-104,502 L-111,503 L-112,507 L-118,507 L-119,512 L-152,512 L-153,508 L-160,506 L-160,502 L-166,501 L-167,497 L-171,493 L-171,484 L-175,482 L-176,478 L-176,464 L-171,462 L-171,451 L-169,447 L-165,446 L-165,440 L-160,439 L-160,436 L-156,435 L-155,430 L-148,430 L-147,426 L-104,425 L-86,425 L-85,420 L-74,420 L-73,415 L-60,414 L-60,412 L-49,411 L-47,410 L-46,407 L-42,406 L-41,402 L-35,401 L-33,401 L-31,398 L-24,398 L-23,390 L-12,389 L-12,386 L-7,385 L-6,381 L-4,381 L-4,377 L2,376 L2,374 L7,372 L8,369 L10,368 L12,364 L15,364 L16,359 L20,359 L19,355 L20,353 L24,353 L24,348 L28,347 L30,343 L32,342 L34,335 L38,335 L38,329 L41,327 L43,321 L46,320 L48,312 L51,311 L52,303 L55,301 L56,292 L60,291 L60,278 L65,276 L65,264 L68,262 L68,217 L69,199 L65,198 L64,189 L61,187 L61,173 L56,172 L56,158 L53,158 L52,156 L52,146 L47,145 L47,138 L43,138 L42,131 L38,129 L37,120 L32,119 L32,115 L29,114 L25,110 L25,104 L20,104 L19,100 L15,98 L14,95 L11,93 L11,90 L6,88 L6,85 L3,84 L3,80 L0,81 L-3,80 L-4,78 L-8,76 L-8,73 L-10,73 L-10,70 L-17,69 L-18,66 L-22,65 L-23,62 L-28,60 L-28,47 L-22,45 L-21,43 L-17,43 L-17,45 L-13,46 L-12,49 L-4,52 L-3,54 L0,55 L0,59 L5,61 L6,64 L10,65 L11,68 L16,70 L16,73 L20,75 L23,79 L26,80 L27,83 L30,85 L30,88 L35,89 L36,92 L39,93 L42,98 L47,102 L47,108 L51,108 L51,100 L55,99 L55,94 L59,92 L61,88 L61,85 L57,82 L57,77 L51,75 L51,70 L47,69 L46,66 L42,64 L42,61 L39,61 L37,57 L32,54 L32,51 L28,50 L28,47 L25,46 L25,44 L22,43 L21,41 L17,40 L17,37 L12,35 L12,32 L9,31 L9,28 L4,26 L2,23 L-2,22 L-3,17 L-6,16 L-7,14 L-7,4 Z M83,95 L73,99 L72,102 L69,103 L69,107 L64,109 L64,133 L67,134 L69,140 L73,140 L75,144 L78,146 L100,146 L102,142 L106,140 L106,138 L110,136 L113,134 L113,108 L109,107 L109,103 L102,100 L99,95 Z M74,161 L73,162 L73,170 L77,171 L78,188 L81,191 L82,202 L87,202 L90,199 L96,197 L96,194 L104,194 L105,192 L105,172 L101,170 L100,162 L99,161 Z M104,208 L99,211 L94,212 L93,217 L91,217 L91,219 L89,219 L85,227 L85,240 L88,247 L90,251 L100,256 L102,258 L106,259 L120,259 L122,255 L126,254 L126,252 L130,251 L130,247 L134,245 L134,223 L130,219 L127,214 L124,212 L123,209 Z M82,265 L81,276 L77,278 L76,294 L73,295 L73,305 L69,306 L70,310 L97,310 L99,296 L103,294 L103,275 L102,273 L92,272 L92,269 L88,268 L87,265 Z M72,324 L70,327 L64,329 L63,332 L61,332 L60,335 L57,337 L56,343 L56,361 L60,366 L65,370 L67,370 L68,374 L73,375 L93,375 L94,371 L98,370 L99,367 L103,365 L103,362 L105,362 L106,351 L106,341 L103,339 L101,334 L98,334 L96,330 L92,327 L88,327 L88,325 L85,324 Z M40,360 L36,365 L35,369 L30,371 L29,373 L25,375 L25,379 L20,382 L20,385 L16,387 L11,393 L11,395 L7,396 L5,401 L14,402 L16,405 L18,405 L18,408 L22,409 L23,412 L28,412 L30,406 L34,405 L38,400 L43,398 L43,395 L46,394 L47,391 L52,388 L52,385 L54,384 L52,378 L51,376 L48,375 L47,371 L43,369 L42,360 Z M-6,412 L-16,413 L-16,416 L-23,417 L-26,421 L-26,423 L-29,424 L-29,431 L-33,432 L-33,446 L-30,448 L-28,453 L-26,453 L-25,457 L-23,457 L-23,461 L-13,463 L5,463 L7,460 L11,459 L14,456 L15,452 L19,449 L19,432 L16,429 L14,421 L10,420 L6,416 L3,416 L3,413 Z M-50,427 L-51,429 L-61,431 L-61,434 L-82,435 L-83,439 L-105,440 L-106,445 L-103,447 L-102,450 L-99,451 L-98,453 L-97,462 L-80,462 L-80,460 L-69,460 L-68,455 L-54,455 L-53,452 L-46,451 L-45,449 L-46,427 Z M-141,445 L-143,449 L-150,450 L-154,454 L-155,459 L-158,459 L-159,462 L-159,483 L-155,484 L-154,490 L-149,491 L-149,494 L-144,495 L-143,497 L-127,497 L-119,493 L-119,491 L-113,489 L-111,484 L-109,483 L-109,461 L-112,458 L-115,451 L-122,449 L-124,449 L-125,445 Z " fill="#6EDC94" transform="translate(414,103)"/>
<path d="M0,0 L31,0 L32,5 L40,5 L41,9 L45,10 L46,14 L50,15 L51,19 L54,21 L55,31 L57,33 L58,46 L57,53 L52,55 L52,63 L47,65 L45,71 L42,71 L41,76 L36,76 L35,81 L30,82 L30,86 L27,87 L-6,88 L-7,90 L-29,90 L-31,94 L-39,93 L-40,97 L-51,97 L-52,101 L-62,102 L-65,106 L-71,106 L-71,109 L-78,110 L-79,114 L-86,114 L-87,118 L-93,119 L-94,123 L-97,124 L-100,127 L-103,127 L-103,130 L-109,131 L-110,135 L-113,135 L-114,139 L-119,140 L-119,144 L-123,146 L-124,149 L-128,149 L-128,155 L-132,156 L-133,161 L-136,163 L-137,166 L-141,167 L-141,172 L-144,174 L-147,174 L-147,182 L-151,186 L-153,190 L-156,191 L-157,199 L-160,201 L-161,210 L-166,212 L-166,221 L-168,227 L-171,227 L-171,238 L-172,241 L-175,243 L-176,253 L-178,254 L-178,317 L-176,319 L-176,330 L-172,331 L-171,338 L-171,343 L-167,346 L-167,355 L-163,357 L-163,365 L-159,370 L-158,373 L-155,375 L-155,380 L-150,382 L-150,388 L-145,390 L-140,401 L-136,403 L-135,406 L-133,407 L-133,411 L-130,412 L-128,416 L-125,419 L-125,422 L-120,423 L-120,428 L-114,429 L-110,431 L-109,437 L-102,438 L-102,442 L-96,443 L-96,447 L-89,447 L-88,452 L-83,453 L-83,464 L-85,467 L-88,467 L-89,471 L-95,471 L-96,468 L-102,467 L-103,463 L-108,460 L-108,457 L-113,457 L-114,453 L-121,452 L-122,448 L-125,447 L-125,443 L-130,442 L-130,438 L-133,437 L-134,435 L-137,434 L-139,430 L-143,428 L-143,425 L-147,424 L-148,421 L-152,420 L-152,415 L-155,415 L-155,424 L-157,428 L-161,428 L-162,433 L-166,433 L-166,442 L-162,444 L-157,448 L-156,451 L-150,456 L-148,460 L-146,461 L-146,463 L-142,464 L-141,467 L-136,469 L-136,471 L-133,472 L-132,475 L-129,476 L-128,481 L-119,483 L-116,488 L-110,493 L-108,494 L-109,501 L-111,508 L-117,509 L-124,508 L-125,505 L-130,503 L-133,501 L-134,498 L-138,496 L-139,493 L-143,491 L-143,487 L-147,486 L-148,484 L-153,482 L-153,478 L-157,477 L-160,474 L-163,473 L-163,469 L-167,468 L-169,464 L-172,462 L-172,460 L-176,458 L-179,454 L-184,449 L-188,447 L-188,443 L-210,443 L-211,438 L-220,438 L-221,435 L-225,433 L-225,430 L-228,428 L-229,425 L-233,423 L-233,390 L-229,388 L-228,380 L-224,378 L-224,361 L-229,360 L-229,348 L-232,348 L-233,339 L-233,327 L-239,326 L-242,323 L-242,320 L-248,319 L-248,317 L-252,315 L-256,312 L-257,303 L-260,302 L-261,296 L-261,272 L-257,269 L-256,263 L-252,262 L-250,258 L-247,258 L-246,254 L-241,252 L-239,250 L-233,249 L-232,226 L-228,224 L-228,215 L-224,214 L-225,205 L-229,203 L-230,200 L-234,198 L-235,189 L-239,186 L-239,166 L-237,162 L-234,162 L-234,152 L-229,147 L-226,147 L-225,142 L-222,141 L-220,137 L-210,136 L-208,131 L-192,130 L-187,128 L-184,123 L-182,122 L-181,119 L-177,119 L-176,114 L-173,113 L-171,108 L-168,107 L-167,104 L-164,103 L-162,100 L-158,100 L-158,95 L-153,92 L-153,70 L-151,64 L-149,63 L-147,56 L-144,55 L-141,50 L-139,49 L-137,45 L-130,43 L-128,40 L-121,40 L-120,36 L-119,35 L-106,35 L-104,36 L-103,39 L-94,40 L-94,43 L-86,44 L-82,48 L-82,50 L-75,50 L-74,45 L-61,44 L-59,40 L-40,40 L-39,36 L-28,35 L-27,32 L-23,32 L-23,22 L-22,20 L-19,19 L-17,13 L-15,12 L-14,8 L-9,8 L-8,5 L-1,3 Z M10,14 L4,17 L3,19 L-3,21 L-4,24 L-7,26 L-7,30 L-11,31 L-11,51 L-7,53 L-6,57 L-3,59 L-2,62 L6,63 L6,67 L25,67 L26,64 L35,61 L38,54 L42,52 L42,33 L39,30 L37,23 L29,20 L26,17 L24,17 L23,14 Z M-32,50 L-32,53 L-46,54 L-46,57 L-58,58 L-59,61 L-66,61 L-67,65 L-72,66 L-72,89 L-68,88 L-68,86 L-60,85 L-59,82 L-40,81 L-38,76 L-15,75 L-14,68 L-16,68 L-17,63 L-22,63 L-22,50 Z M-120,53 L-120,56 L-128,57 L-129,61 L-133,63 L-133,65 L-136,66 L-137,81 L-136,89 L-133,91 L-132,94 L-129,96 L-127,100 L-123,101 L-122,104 L-102,104 L-101,101 L-95,100 L-94,97 L-90,95 L-90,90 L-86,89 L-86,69 L-89,66 L-91,61 L-97,61 L-98,57 L-102,55 L-103,53 Z M-144,106 L-146,110 L-151,115 L-154,117 L-154,120 L-158,122 L-158,124 L-163,125 L-163,129 L-166,130 L-167,135 L-171,136 L-171,141 L-168,143 L-166,148 L-164,148 L-163,153 L-160,154 L-159,162 L-155,162 L-154,156 L-151,154 L-150,149 L-147,148 L-147,145 L-144,144 L-139,139 L-139,137 L-135,136 L-135,133 L-132,132 L-129,129 L-126,127 L-126,123 L-122,122 L-122,119 L-129,118 L-130,114 L-137,114 L-137,110 L-140,109 L-142,106 Z M-208,148 L-210,152 L-213,153 L-213,155 L-216,156 L-217,160 L-219,161 L-219,163 L-223,164 L-222,186 L-219,188 L-218,191 L-215,192 L-213,195 L-210,195 L-209,198 L-207,199 L-190,199 L-187,196 L-180,194 L-180,191 L-177,190 L-175,185 L-173,185 L-172,173 L-172,163 L-177,162 L-177,157 L-182,152 L-187,151 L-188,148 Z M-211,215 L-212,221 L-212,230 L-217,231 L-217,245 L-216,247 L-206,248 L-205,251 L-198,253 L-196,258 L-193,257 L-192,244 L-189,242 L-188,225 L-184,224 L-184,216 L-185,215 Z M-232,262 L-237,267 L-238,270 L-240,271 L-240,274 L-244,276 L-246,280 L-246,296 L-245,299 L-243,300 L-241,304 L-238,305 L-236,308 L-233,309 L-231,312 L-223,313 L-212,313 L-210,309 L-203,308 L-200,302 L-198,301 L-196,295 L-195,294 L-195,279 L-198,274 L-201,273 L-202,269 L-206,268 L-208,265 L-211,265 L-212,262 Z M-196,319 L-197,322 L-201,323 L-202,325 L-215,327 L-216,341 L-215,348 L-212,349 L-210,358 L-206,360 L-205,363 L-189,364 L-180,363 L-181,359 L-183,358 L-184,349 L-188,346 L-188,338 L-190,331 L-192,330 L-193,319 Z M-202,378 L-204,381 L-209,383 L-210,385 L-213,386 L-216,391 L-216,396 L-218,396 L-220,405 L-218,407 L-217,418 L-212,420 L-210,424 L-206,425 L-206,428 L-201,429 L-182,429 L-181,426 L-177,425 L-173,421 L-173,419 L-169,418 L-168,407 L-167,406 L-167,395 L-169,394 L-171,388 L-175,382 L-183,381 L-184,378 Z " fill="#6DDC93" transform="translate(262,49)"/>
</svg>
